<svg xmlns="http://www.w3.org/2000/svg" version="1.1" xmlns:xlink="http://www.w3.org/1999/xlink" xmlns:svgjs="http://svgjs.dev/svgjs" width="1500" height="371" viewBox="0 0 1500 371"><g transform="matrix(1,0,0,1,-0.9090909090909918,-0.49932348584752617)"><svg viewBox="0 0 396 98" data-background-color="#ffffff" preserveAspectRatio="xMidYMid meet" height="371" width="1500" xmlns="http://www.w3.org/2000/svg" xmlns:xlink="http://www.w3.org/1999/xlink"><g id="tight-bounds" transform="matrix(1,0,0,1,0.2400000000000091,0.1318967698465201)"><svg viewBox="0 0 395.52 97.73620646030696" height="97.73620646030696" width="395.52"><g><svg viewBox="0 0 668.2098220648817 165.120077690479" height="97.73620646030696" width="395.52"><g transform="matrix(1,0,0,1,270.7122220648818,13.342890755647602)"><svg viewBox="0 0 397.49759999999986 138.4342961791838" height="138.4342961791838" width="397.49759999999986"><g id="textblocktransform"><svg viewBox="0 0 397.49759999999986 138.4342961791838" height="138.4342961791838" width="397.49759999999986" id="textblock"><g><rect width="397.49759999999986" height="9.57242541118488" x="0" y="117.42318902274015" fill="#f9e17e" opacity="1" stroke-width="0" stroke="transparent" fill-opacity="1" class="rect-qz-0" data-fill-palette-color="primary" rx="1%" id="qz-0" data-palette-color="#f9e17e"></rect></g><g transform="matrix(1,0,0,1,0.9887999999999693,0)"><svg viewBox="0 0 395.5199999999999 106.1467716535433" height="106.1467716535433" width="395.5199999999999"><g transform="matrix(1,0,0,1,0,0)"><svg width="395.5199999999999" viewBox="2.78 -38.16 186.03 49.92999999999999" height="106.1467716535433" data-palette-color="#f9e17e"><path d="M2.78-14.33L2.78-14.33Q2.78-17.5 3.94-20.25 5.1-23 7.34-25.01 9.57-27.03 12.81-28.17 16.04-29.32 20.19-29.32L20.19-29.32Q22-29.32 23.83-29.1 25.66-28.88 27.36-28.48 29.05-28.08 30.54-27.53 32.03-26.98 33.13-26.32L33.13-26.32 29.79-20.87Q27.42-21.97 25.31-22.49 23.19-23 21.02-23L21.02-23Q18.53-23 16.55-22.35 14.58-21.7 13.2-20.54 11.82-19.38 11.1-17.81 10.38-16.24 10.38-14.38L10.38-14.38Q10.38-12.52 11.15-10.95 11.91-9.38 13.32-8.24 14.72-7.1 16.71-6.46 18.7-5.81 21.14-5.81L21.14-5.81Q23.83-5.81 26.21-6.57 28.59-7.32 30.64-8.59L30.64-8.59 33.98-3.15Q32.69-2.37 31.18-1.7 29.66-1.03 27.94-0.54 26.22-0.05 24.33 0.23 22.44 0.51 20.41 0.51L20.41 0.51Q16.28 0.51 13.01-0.61 9.74-1.73 7.47-3.72 5.2-5.71 3.99-8.42 2.78-11.13 2.78-14.33ZM40.4-9.08L40.4-9.08Q40.4-11.16 41.31-12.87 42.21-14.58 44.02-15.81 45.82-17.04 48.52-17.71 51.22-18.38 54.81-18.38L54.81-18.38Q57.47-18.38 60.41-17.99 63.35-17.6 66.48-16.8L66.48-16.8Q66.35-18.16 65.65-19.32 64.94-20.48 63.68-21.33 62.42-22.17 60.65-22.63 58.88-23.1 56.64-23.1L56.64-23.1Q55.42-23.1 53.95-22.95 52.49-22.8 50.93-22.51 49.36-22.22 47.84-21.78 46.31-21.34 44.99-20.73L44.99-20.73 42.8-26.66Q44.43-27.25 46.3-27.73 48.17-28.22 50.12-28.58 52.07-28.93 54.03-29.13 55.98-29.32 57.81-29.32L57.81-29.32Q65.89-29.32 69.82-25.2 73.75-21.07 73.75-12.55L73.75-12.55 73.75 0 66.53 0 66.53-2.71Q65.4-2.05 64.07-1.46 62.74-0.88 61.18-0.44 59.62 0 57.82 0.26 56.03 0.51 54.03 0.51L54.03 0.51Q50.66 0.51 48.11-0.22 45.55-0.95 43.85-2.25 42.14-3.54 41.27-5.29 40.4-7.03 40.4-9.08ZM48.02-9.33L48.02-9.33Q48.02-8.62 48.39-7.97 48.75-7.32 49.56-6.82 50.36-6.32 51.62-6.02 52.88-5.71 54.66-5.71L54.66-5.71Q56.56-5.71 58.35-6.05 60.13-6.4 61.67-6.96 63.21-7.52 64.45-8.25 65.7-8.98 66.53-9.77L66.53-9.77 66.53-11.04Q64.87-11.5 63.24-11.82 61.62-12.13 60.14-12.32 58.66-12.5 57.36-12.57 56.05-12.65 55.08-12.65L55.08-12.65Q53.05-12.65 51.71-12.38 50.36-12.11 49.53-11.66 48.7-11.21 48.36-10.6 48.02-9.99 48.02-9.33ZM87.64 0L87.64-23.39 80.68-23.39 80.68-28.81 87.64-28.81 87.64-37.77 94.87-37.77 94.87-28.81 101.83-28.81 101.83-23.39 94.87-23.39 94.87 0 87.64 0ZM104.24 0L122.16-38.16 130.36-38.16 148.82 0 140.69 0 137.64-6.42 115.35-6.42 112.39 0 104.24 0ZM118.3-12.79L134.59-12.79 126.34-30.13 118.3-12.79ZM160.88-2.08L160.88 11.77 153.65 11.77 153.65-28.81 160.88-28.81 160.88-26.1Q161.83-26.76 163.12-27.34 164.42-27.93 165.91-28.37 167.4-28.81 168.98-29.06 170.57-29.32 172.16-29.32L172.16-29.32Q175.82-29.32 178.88-28.25 181.95-27.17 184.15-25.22 186.34-23.27 187.58-20.54 188.81-17.82 188.81-14.53L188.81-14.53Q188.81-11.08 187.51-8.31 186.22-5.54 183.94-3.58 181.66-1.61 178.52-0.55 175.38 0.51 171.72 0.51L171.72 0.51Q170.16 0.51 168.63 0.32 167.1 0.12 165.7-0.22 164.3-0.56 163.06-1.04 161.83-1.51 160.88-2.08L160.88-2.08ZM160.88-19.04L160.88-9.06Q161.98-8.18 163.2-7.57 164.42-6.96 165.69-6.57 166.96-6.18 168.25-5.99 169.55-5.81 170.77-5.81L170.77-5.81Q173.26-5.81 175.2-6.48 177.14-7.15 178.47-8.33 179.8-9.5 180.51-11.08 181.22-12.67 181.22-14.53L181.22-14.53Q181.22-16.26 180.52-17.8 179.82-19.34 178.52-20.5 177.21-21.66 175.37-22.33 173.53-23 171.23-23L171.23-23Q169.77-23 168.3-22.72 166.84-22.44 165.48-21.92 164.13-21.41 162.94-20.68 161.76-19.95 160.88-19.04L160.88-19.04Z" opacity="1" transform="matrix(1,0,0,1,0,0)" fill="#f9e17e" class="wordmark-text-0" data-fill-palette-color="primary" id="text-0"></path></svg></g></svg></g><g transform="matrix(1,0,0,1,0,138.27203180312188)"><svg viewBox="0 0 3.757439999999999 0.1622643760619218" height="0.1622643760619218" width="3.757439999999999"><g transform="matrix(1,0,0,1,0,0)"><svg width="3.757439999999999" viewBox="2.4 -35.9 1059.28 45.75" height="0.1622643760619218" data-palette-color="#f9e17e"><path d="M27.9-32.35L27.9-32.35 27.9-28.2Q25.7-29.35 23.95-29.85 22.2-30.35 19.35-30.35L19.35-30.35Q13.9-30.35 10.28-26.65 6.65-22.95 6.65-17L6.65-17Q6.65-10.8 10.25-7.1 13.85-3.4 19.8-3.4L19.8-3.4Q24.6-3.4 28-5.95L28-5.95 28-1.7Q24.9 0.4 19.5 0.4L19.5 0.4Q11.9 0.4 7.15-4.28 2.4-8.95 2.4-17L2.4-17Q2.4-24.6 7.23-29.38 12.05-34.15 19.35-34.15L19.35-34.15Q24.6-34.15 27.9-32.35ZM47.4-8.45L47.4-11.7 43-11.7Q39.8-11.7 38.2-10.45 36.6-9.2 36.6-7.3 36.6-5.4 37.85-4.23 39.1-3.05 41.5-3.05L41.5-3.05Q44.2-3.05 45.8-4.58 47.4-6.1 47.4-8.45L47.4-8.45ZM34.3-20.05L34.3-20.05 34.3-24Q37.15-25.75 41.8-25.75L41.8-25.75Q51.35-25.75 51.35-16.05L51.35-16.05 51.35 0 47.45 0 47.45-3Q45.5 0.25 40.35 0.25L40.35 0.25Q36.8 0.25 34.62-1.85 32.45-3.95 32.45-7.15L32.45-7.15Q32.45-10.8 35.22-12.83 38-14.85 42.8-14.85L42.8-14.85 47.4-14.85 47.4-16.15Q47.4-19.15 46.05-20.68 44.7-22.2 41.5-22.2L41.5-22.2Q37.45-22.2 34.3-20.05ZM70.8-22.15L63.8-22.15 63.8-7.3Q63.8-3.25 67.6-3.25L67.6-3.25Q69.55-3.25 71.05-4.4L71.05-4.4 71.05-0.65Q69.4 0.25 67.35 0.25L67.35 0.25Q59.85 0.25 59.85-7.4L59.85-7.4 59.85-22.15 55.8-22.15 55.8-25.35 59.85-25.35 59.85-31.65 63.8-31.65 63.8-25.35 70.8-25.35 70.8-22.15ZM90.44-8.45L90.44-11.7 86.04-11.7Q82.84-11.7 81.24-10.45 79.64-9.2 79.64-7.3 79.64-5.4 80.89-4.23 82.14-3.05 84.54-3.05L84.54-3.05Q87.24-3.05 88.84-4.58 90.44-6.1 90.44-8.45L90.44-8.45ZM77.34-20.05L77.34-20.05 77.34-24Q80.19-25.75 84.84-25.75L84.84-25.75Q94.39-25.75 94.39-16.05L94.39-16.05 94.39 0 90.49 0 90.49-3Q88.54 0.25 83.39 0.25L83.39 0.25Q79.84 0.25 77.67-1.85 75.49-3.95 75.49-7.15L75.49-7.15Q75.49-10.8 78.27-12.83 81.04-14.85 85.84-14.85L85.84-14.85 90.44-14.85 90.44-16.15Q90.44-19.15 89.09-20.68 87.74-22.2 84.54-22.2L84.54-22.2Q80.49-22.2 77.34-20.05ZM112.54-3.2L112.54-3.2Q115.74-3.2 117.79-5.73 119.84-8.25 119.84-12.9L119.84-12.9Q119.84-17.05 117.84-19.6 115.84-22.15 112.79-22.15 109.74-22.15 107.52-19.93 105.29-17.7 105.29-12.65L105.29-12.65Q105.29-7.8 107.54-5.5 109.79-3.2 112.54-3.2ZM101.39-25.35L105.29-25.35 105.29-21.5Q107.94-25.75 113.14-25.75L113.14-25.75Q118.19-25.75 121.07-22.08 123.94-18.4 123.94-12.9L123.94-12.9Q123.94-7.05 120.92-3.33 117.89 0.4 113.04 0.4L113.04 0.4Q108.04 0.4 105.29-3.85L105.29-3.85 105.29 9.85 101.39 9.85 101.39-25.35ZM154.38-22.15L147.38-22.15 147.38-7.3Q147.38-3.25 151.19-3.25L151.19-3.25Q153.13-3.25 154.63-4.4L154.63-4.4 154.63-0.65Q152.98 0.25 150.94 0.25L150.94 0.25Q143.44 0.25 143.44-7.4L143.44-7.4 143.44-22.15 139.38-22.15 139.38-25.35 143.44-25.35 143.44-31.65 147.38-31.65 147.38-25.35 154.38-25.35 154.38-22.15ZM162.93-14.3L176.53-14.3 176.53-15.3Q176.53-18.45 174.83-20.33 173.13-22.2 170.13-22.2L170.13-22.2Q167.28-22.2 165.28-20.15 163.28-18.1 162.93-14.3L162.93-14.3ZM178.88-5L178.88-5 178.88-1.3Q175.93 0.25 171.68 0.25L171.68 0.25Q165.93 0.25 162.41-3.28 158.88-6.8 158.88-12.6L158.88-12.6Q158.88-18.65 162.03-22.15 165.18-25.65 170.13-25.65L170.13-25.65Q174.88-25.65 177.68-22.6 180.48-19.55 180.48-13.95L180.48-13.95Q180.48-12.35 180.23-11L180.23-11 162.93-11Q163.38-7.25 165.78-5.25 168.18-3.25 172.08-3.25L172.08-3.25Q176.33-3.25 178.88-5ZM180.53 9L180.53 9 180.53 5.5Q182.43 6.3 183.93 6.3L183.93 6.3Q186.73 6.3 186.73 2.65L186.73 2.65 186.73-25.35 190.63-25.35 190.63 2.75Q190.63 6.05 188.9 7.9 187.18 9.75 184.13 9.75L184.13 9.75Q182.48 9.75 180.53 9ZM186.8-31.48Q186.08-32.2 186.08-33.3 186.08-34.4 186.8-35.15 187.53-35.9 188.63-35.9 189.73-35.9 190.48-35.15 191.23-34.4 191.23-33.3 191.23-32.2 190.48-31.48 189.73-30.75 188.63-30.75 187.53-30.75 186.8-31.48ZM202.03 0L198.08 0 198.08-25.35 202.03-25.35 202.03 0ZM198.2-31.48Q197.48-32.2 197.48-33.3 197.48-34.4 198.2-35.15 198.93-35.9 200.03-35.9 201.13-35.9 201.88-35.15 202.63-34.4 202.63-33.3 202.63-32.2 201.88-31.48 201.13-30.75 200.03-30.75 198.93-30.75 198.2-31.48ZM212.07-14.3L225.68-14.3 225.68-15.3Q225.68-18.45 223.97-20.33 222.28-22.2 219.28-22.2L219.28-22.2Q216.43-22.2 214.43-20.15 212.43-18.1 212.07-14.3L212.07-14.3ZM228.03-5L228.03-5 228.03-1.3Q225.07 0.25 220.82 0.25L220.82 0.25Q215.07 0.25 211.55-3.28 208.03-6.8 208.03-12.6L208.03-12.6Q208.03-18.65 211.18-22.15 214.32-25.65 219.28-25.65L219.28-25.65Q224.03-25.65 226.82-22.6 229.63-19.55 229.63-13.95L229.63-13.95Q229.63-12.35 229.38-11L229.38-11 212.07-11Q212.53-7.25 214.93-5.25 217.32-3.25 221.22-3.25L221.22-3.25Q225.47-3.25 228.03-5ZM235.62-25.35L239.52-25.35 239.52-20.95Q241.77-25.7 247.52-25.7L247.52-25.7Q251.22-25.7 253.42-23.45 255.62-21.2 255.62-17.45L255.62-17.45 255.62 0 251.67 0 251.67-16.4Q251.67-19.2 250.25-20.68 248.82-22.15 246.52-22.15L246.52-22.15Q243.67-22.15 241.6-19.95 239.52-17.75 239.52-13.85L239.52-13.85 239.52 0 235.62 0 235.62-25.35ZM272.27-3.2L272.27-3.2Q275.37-3.2 277.54-5.5 279.72-7.8 279.72-12.85L279.72-12.85Q279.72-17.65 277.47-19.9 275.22-22.15 272.52-22.15L272.52-22.15Q269.37-22.15 267.29-19.63 265.22-17.1 265.22-12.4L265.22-12.4Q265.22-8.3 267.22-5.75 269.22-3.2 272.27-3.2ZM279.72-21.5L279.72-35.35 283.67-35.35 283.67 0 279.72 0 279.72-3.75Q277.02 0.4 271.92 0.4L271.92 0.4Q266.87 0.4 263.99-3.35 261.12-7.1 261.12-12.45L261.12-12.45Q261.12-18.4 264.17-22.08 267.22-25.75 272.02-25.75L272.02-25.75Q276.97-25.75 279.72-21.5L279.72-21.5ZM301.27 0.45L301.27 0.45Q295.82 0.45 292.64-3.23 289.47-6.9 289.47-12.5L289.47-12.5Q289.47-18.15 292.74-21.93 296.02-25.7 301.27-25.7L301.27-25.7Q307.02-25.7 310.14-22 313.27-18.3 313.27-12.6L313.27-12.6Q313.27-6.95 310.07-3.25 306.87 0.45 301.27 0.45ZM301.27-22.2L301.27-22.2Q297.67-22.2 295.62-19.4 293.57-16.6 293.57-12.55L293.57-12.55Q293.57-8.6 295.67-5.83 297.77-3.05 301.27-3.05L301.27-3.05Q305.07-3.05 307.12-5.78 309.17-8.5 309.17-12.55L309.17-12.55Q309.17-16.75 307.22-19.48 305.27-22.2 301.27-22.2ZM342.56 0L337.71 0 328.86-25.35 332.96-25.35 336.46-14.65 340.16-3.1Q340.61-5.25 343.91-14.65L343.91-14.65 347.51-25.35 351.61-25.35 342.56 0ZM360.66 0L356.71 0 356.71-25.35 360.66-25.35 360.66 0ZM356.84-31.48Q356.11-32.2 356.11-33.3 356.11-34.4 356.84-35.15 357.56-35.9 358.66-35.9 359.76-35.9 360.51-35.15 361.26-34.4 361.26-33.3 361.26-32.2 360.51-31.48 359.76-30.75 358.66-30.75 357.56-30.75 356.84-31.48ZM368.16-25.35L372.06-25.35 372.06-20.95Q374.31-25.7 380.06-25.7L380.06-25.7Q383.76-25.7 385.96-23.45 388.16-21.2 388.16-17.45L388.16-17.45 388.16 0 384.21 0 384.21-16.4Q384.21-19.2 382.78-20.68 381.36-22.15 379.06-22.15L379.06-22.15Q376.21-22.15 374.13-19.95 372.06-17.75 372.06-13.85L372.06-13.85 372.06 0 368.16 0 368.16-25.35ZM397.75-12.55L397.75-12.55Q397.81-8.45 400.25-5.73 402.7-3 407.2-3L407.2-3Q410.11-3 412.61-4.65L412.61-4.65 412.61-0.9Q410.2 0.55 406.7 0.55L406.7 0.55Q400.7 0.55 397.18-3.28 393.65-7.1 393.65-12.6L393.65-12.6Q393.65-18 397.18-21.9 400.7-25.8 406.81-25.8L406.81-25.8Q410.06-25.8 412.61-24.4L412.61-24.4 412.61-20.65Q410.31-22.2 407.2-22.2L407.2-22.2Q402.9-22.2 400.33-19.43 397.75-16.65 397.75-12.55ZM434.45-11.4L434.45-25.35 438.4-25.35 438.4 0 434.45 0 434.45-4.4Q432.45 0.3 426.5 0.3L426.5 0.3Q422.75 0.3 420.58-1.93 418.4-4.15 418.4-7.9L418.4-7.9 418.4-25.35 422.35-25.35 422.35-8.9Q422.35-6.15 423.75-4.7 425.15-3.25 427.55-3.25L427.55-3.25Q430.7-3.25 432.58-5.45 434.45-7.65 434.45-11.4L434.45-11.4ZM449.85 0L445.9 0 445.9-35.35 449.85-35.35 449.85 0ZM467.65 0.45L467.65 0.45Q462.2 0.45 459.02-3.23 455.85-6.9 455.85-12.5L455.85-12.5Q455.85-18.15 459.12-21.93 462.4-25.7 467.65-25.7L467.65-25.7Q473.4-25.7 476.52-22 479.65-18.3 479.65-12.6L479.65-12.6Q479.65-6.95 476.45-3.25 473.25 0.45 467.65 0.45ZM467.65-22.2L467.65-22.2Q464.05-22.2 462-19.4 459.95-16.6 459.95-12.55L459.95-12.55Q459.95-8.6 462.05-5.83 464.15-3.05 467.65-3.05L467.65-3.05Q471.45-3.05 473.5-5.78 475.55-8.5 475.55-12.55L475.55-12.55Q475.55-16.75 473.6-19.48 471.65-22.2 467.65-22.2ZM499.25-24.5L499.25-24.5 499.25-20.75Q496.94-22.15 492.94-22.15L492.94-22.15Q490.94-22.15 489.77-21.23 488.6-20.3 488.6-18.85L488.6-18.85Q488.6-17.95 488.94-17.28 489.3-16.6 490.32-15.95 491.35-15.3 491.82-15.08 492.3-14.85 493.9-14.15L493.9-14.15Q497.1-12.85 498.9-11.2 500.69-9.55 500.69-6.75L500.69-6.75Q500.69-3.5 498.42-1.6 496.15 0.3 492.19 0.3L492.19 0.3Q487.6 0.3 484.75-1.25L484.75-1.25 484.75-5.1Q488.1-3.1 491.94-3.1L491.94-3.1Q494.25-3.1 495.44-4 496.65-4.9 496.65-6.45L496.65-6.45Q496.65-8.25 495.32-9.25 494-10.25 490.9-11.5L490.9-11.5Q488.05-12.6 486.32-14.25 484.6-15.9 484.6-18.7L484.6-18.7Q484.6-21.85 486.97-23.73 489.35-25.6 492.9-25.6L492.9-25.6Q496.85-25.6 499.25-24.5ZM505.44 6.15L501.99 6.15 506.64-5.05 511.89-5.05 505.44 6.15ZM545.24-11.4L545.24-25.35 549.19-25.35 549.19 0 545.24 0 545.24-4.4Q543.24 0.3 537.29 0.3L537.29 0.3Q533.54 0.3 531.36-1.93 529.19-4.15 529.19-7.9L529.19-7.9 529.19-25.35 533.14-25.35 533.14-8.9Q533.14-6.15 534.54-4.7 535.94-3.25 538.34-3.25L538.34-3.25Q541.49-3.25 543.36-5.45 545.24-7.65 545.24-11.4L545.24-11.4ZM556.48-25.35L560.38-25.35 560.38-20.95Q562.63-25.7 568.38-25.7L568.38-25.7Q572.08-25.7 574.28-23.45 576.48-21.2 576.48-17.45L576.48-17.45 576.48 0 572.53 0 572.53-16.4Q572.53-19.2 571.11-20.68 569.68-22.15 567.38-22.15L567.38-22.15Q564.53-22.15 562.46-19.95 560.38-17.75 560.38-13.85L560.38-13.85 560.38 0 556.48 0 556.48-25.35ZM597.78-22.2L594.23-22.2 594.23-34.05 597.78-34.05 597.78-22.2ZM603.63-25.35L607.53-25.35 607.53-21.25Q609.63-25.7 614.68-25.7L614.68-25.7Q620.53-25.7 622.08-20.75L622.08-20.75Q623.18-23.15 625.15-24.43 627.13-25.7 629.58-25.7L629.58-25.7Q633.53-25.7 635.53-23.45 637.53-21.2 637.53-17.4L637.53-17.4 637.53 0 633.58 0 633.58-16.4Q633.58-22.15 628.73-22.15L628.73-22.15Q626.33-22.15 624.43-19.98 622.53-17.8 622.53-13.85L622.53-13.85 622.53 0 618.58 0 618.58-16.4Q618.58-22.15 613.73-22.15L613.73-22.15Q611.33-22.15 609.43-19.98 607.53-17.8 607.53-13.85L607.53-13.85 607.53 0 603.63 0 603.63-25.35ZM647.07-14.3L660.67-14.3 660.67-15.3Q660.67-18.45 658.97-20.33 657.27-22.2 654.27-22.2L654.27-22.2Q651.42-22.2 649.42-20.15 647.42-18.1 647.07-14.3L647.07-14.3ZM663.02-5L663.02-5 663.02-1.3Q660.07 0.25 655.82 0.25L655.82 0.25Q650.07 0.25 646.55-3.28 643.02-6.8 643.02-12.6L643.02-12.6Q643.02-18.65 646.17-22.15 649.32-25.65 654.27-25.65L654.27-25.65Q659.02-25.65 661.82-22.6 664.62-19.55 664.62-13.95L664.62-13.95Q664.62-12.35 664.37-11L664.37-11 647.07-11Q647.52-7.25 649.92-5.25 652.32-3.25 656.22-3.25L656.22-3.25Q660.47-3.25 663.02-5ZM680.92 0.45L680.92 0.45Q675.47 0.45 672.3-3.23 669.12-6.9 669.12-12.5L669.12-12.5Q669.12-18.15 672.4-21.93 675.67-25.7 680.92-25.7L680.92-25.7Q686.67-25.7 689.8-22 692.92-18.3 692.92-12.6L692.92-12.6Q692.92-6.95 689.72-3.25 686.52 0.45 680.92 0.45ZM680.92-22.2L680.92-22.2Q677.32-22.2 675.27-19.4 673.22-16.6 673.22-12.55L673.22-12.55Q673.22-8.6 675.32-5.83 677.42-3.05 680.92-3.05L680.92-3.05Q684.72-3.05 686.77-5.78 688.82-8.5 688.82-12.55L688.82-12.55Q688.82-16.75 686.87-19.48 684.92-22.2 680.92-22.2ZM708.97 0L704.12 0 696.32-25.35 700.52-25.35 702.97-16.95Q704.27-12.55 705.14-9.28 706.02-6 706.27-4.9L706.27-4.9 706.52-3.85Q707.27-7.05 710.17-17L710.17-17 712.57-25.35 716.77-25.35 719.22-17 722.97-3.8Q723.67-6.75 726.82-17L726.82-17 729.37-25.35 733.42-25.35 725.42 0 720.57 0 718.17-8.3 714.67-20.95Q713.92-17.75 711.27-8.3L711.27-8.3 708.97 0ZM740.42-22.2L736.87-22.2 736.87-34.05 740.42-34.05 740.42-22.2ZM746.26-25.35L750.16-25.35 750.16-21.25Q752.26-25.7 757.31-25.7L757.31-25.7Q763.16-25.7 764.71-20.75L764.71-20.75Q765.81-23.15 767.79-24.43 769.76-25.7 772.21-25.7L772.21-25.7Q776.16-25.7 778.16-23.45 780.16-21.2 780.16-17.4L780.16-17.4 780.16 0 776.21 0 776.21-16.4Q776.21-22.15 771.36-22.15L771.36-22.15Q768.96-22.15 767.06-19.98 765.16-17.8 765.16-13.85L765.16-13.85 765.16 0 761.21 0 761.21-16.4Q761.21-22.15 756.36-22.15L756.36-22.15Q753.96-22.15 752.06-19.98 750.16-17.8 750.16-13.85L750.16-13.85 750.16 0 746.26 0 746.26-25.35ZM789.71-14.3L803.31-14.3 803.31-15.3Q803.31-18.45 801.61-20.33 799.91-22.2 796.91-22.2L796.91-22.2Q794.06-22.2 792.06-20.15 790.06-18.1 789.71-14.3L789.71-14.3ZM805.66-5L805.66-5 805.66-1.3Q802.71 0.25 798.46 0.25L798.46 0.25Q792.71 0.25 789.19-3.28 785.66-6.8 785.66-12.6L785.66-12.6Q785.66-18.65 788.81-22.15 791.96-25.65 796.91-25.65L796.91-25.65Q801.66-25.65 804.46-22.6 807.26-19.55 807.26-13.95L807.26-13.95Q807.26-12.35 807.01-11L807.01-11 789.71-11Q790.16-7.25 792.56-5.25 794.96-3.25 798.86-3.25L798.86-3.25Q803.11-3.25 805.66-5ZM813.26-25.35L817.16-25.35 817.16-20.95Q819.41-25.7 825.16-25.7L825.16-25.7Q828.86-25.7 831.06-23.45 833.26-21.2 833.26-17.45L833.26-17.45 833.26 0 829.31 0 829.31-16.4Q829.31-19.2 827.88-20.68 826.46-22.15 824.16-22.15L824.16-22.15Q821.31-22.15 819.23-19.95 817.16-17.75 817.16-13.85L817.16-13.85 817.16 0 813.26 0 813.26-25.35ZM852.71-22.15L845.71-22.15 845.71-7.3Q845.71-3.25 849.51-3.25L849.51-3.25Q851.46-3.25 852.96-4.4L852.96-4.4 852.96-0.65Q851.31 0.25 849.26 0.25L849.26 0.25Q841.76 0.25 841.76-7.4L841.76-7.4 841.76-22.15 837.71-22.15 837.71-25.35 841.76-25.35 841.76-31.65 845.71-31.65 845.71-25.35 852.71-25.35 852.71-22.15ZM869 0.45L869 0.45Q863.55 0.45 860.38-3.23 857.2-6.9 857.2-12.5L857.2-12.5Q857.2-18.15 860.48-21.93 863.75-25.7 869-25.7L869-25.7Q874.75-25.7 877.88-22 881-18.3 881-12.6L881-12.6Q881-6.95 877.8-3.25 874.6 0.45 869 0.45ZM869-22.2L869-22.2Q865.4-22.2 863.35-19.4 861.3-16.6 861.3-12.55L861.3-12.55Q861.3-8.6 863.4-5.83 865.5-3.05 869-3.05L869-3.05Q872.8-3.05 874.85-5.78 876.9-8.5 876.9-12.55L876.9-12.55Q876.9-16.75 874.95-19.48 873-22.2 869-22.2ZM912.65-8.45L912.65-11.7 908.25-11.7Q905.05-11.7 903.45-10.45 901.85-9.2 901.85-7.3 901.85-5.4 903.1-4.23 904.35-3.05 906.75-3.05L906.75-3.05Q909.45-3.05 911.05-4.58 912.65-6.1 912.65-8.45L912.65-8.45ZM899.55-20.05L899.55-20.05 899.55-24Q902.4-25.75 907.05-25.75L907.05-25.75Q916.6-25.75 916.6-16.05L916.6-16.05 916.6 0 912.7 0 912.7-3Q910.75 0.25 905.6 0.25L905.6 0.25Q902.05 0.25 899.87-1.85 897.7-3.95 897.7-7.15L897.7-7.15Q897.7-10.8 900.47-12.83 903.25-14.85 908.05-14.85L908.05-14.85 912.65-14.85 912.65-16.15Q912.65-19.15 911.3-20.68 909.95-22.2 906.75-22.2L906.75-22.2Q902.7-22.2 899.55-20.05ZM939.94 0L935.99 0 935.99-35.35 939.94-35.35 939.94 0ZM961.09-8.45L961.09-11.7 956.69-11.7Q953.49-11.7 951.89-10.45 950.29-9.2 950.29-7.3 950.29-5.4 951.54-4.23 952.79-3.05 955.19-3.05L955.19-3.05Q957.89-3.05 959.49-4.58 961.09-6.1 961.09-8.45L961.09-8.45ZM947.99-20.05L947.99-20.05 947.99-24Q950.84-25.75 955.49-25.75L955.49-25.75Q965.04-25.75 965.04-16.05L965.04-16.05 965.04 0 961.14 0 961.14-3Q959.19 0.25 954.04 0.25L954.04 0.25Q950.49 0.25 948.32-1.85 946.14-3.95 946.14-7.15L946.14-7.15Q946.14-10.8 948.92-12.83 951.69-14.85 956.49-14.85L956.49-14.85 961.09-14.85 961.09-16.15Q961.09-19.15 959.74-20.68 958.39-22.2 955.19-22.2L955.19-22.2Q951.14-22.2 947.99-20.05ZM995.54 0L990.69 0 981.84-25.35 985.94-25.35 989.44-14.65 993.14-3.1Q993.59-5.25 996.89-14.65L996.89-14.65 1000.49-25.35 1004.59-25.35 995.54 0ZM1012.03-14.3L1025.63-14.3 1025.63-15.3Q1025.63-18.45 1023.93-20.33 1022.23-22.2 1019.23-22.2L1019.23-22.2Q1016.38-22.2 1014.38-20.15 1012.38-18.1 1012.03-14.3L1012.03-14.3ZM1027.98-5L1027.98-5 1027.98-1.3Q1025.03 0.25 1020.78 0.25L1020.78 0.25Q1015.03 0.25 1011.51-3.28 1007.98-6.8 1007.98-12.6L1007.98-12.6Q1007.98-18.65 1011.13-22.15 1014.28-25.65 1019.23-25.65L1019.23-25.65Q1023.98-25.65 1026.78-22.6 1029.58-19.55 1029.58-13.95L1029.58-13.95Q1029.58-12.35 1029.33-11L1029.33-11 1012.03-11Q1012.48-7.25 1014.88-5.25 1017.28-3.25 1021.18-3.25L1021.18-3.25Q1025.43-3.25 1027.98-5ZM1034.63-25.35L1051.68-25.35 1051.68-22.45 1038.68-3.55 1052.38-3.55 1052.38 0 1034.13 0 1034.13-3.1 1046.98-21.85 1034.63-21.85 1034.63-25.35ZM1056.63-0.45Q1055.78-1.3 1055.78-2.55 1055.78-3.8 1056.63-4.65 1057.48-5.5 1058.73-5.5 1059.98-5.5 1060.83-4.65 1061.68-3.8 1061.68-2.55 1061.68-1.3 1060.83-0.45 1059.98 0.4 1058.73 0.4 1057.48 0.4 1056.63-0.45Z" opacity="1" transform="matrix(1,0,0,1,0,0)" fill="#f9e17e" class="slogan-text-1" data-fill-palette-color="secondary" id="text-1"></path></svg></g></svg></g></svg></g></svg></g><g><svg viewBox="0 0 245.65351679999992 165.120077690479" height="165.120077690479" width="245.65351679999992"><g><svg xmlns="http://www.w3.org/2000/svg" xmlns:xlink="http://www.w3.org/1999/xlink" version="1.1" x="0" y="0" viewBox="-345.76500000000004 275.279 99.42178716439025 66.82799999999997" enable-background="new -346 256 100 100" xml:space="preserve" height="165.120077690479" width="245.65351679999992" class="icon-icon-0" data-fill-palette-color="accent" id="icon-0"><g fill="#f9e17e" data-fill-palette-color="accent"><path d="M-251.339 331.136c-1.075-0.089-10.585-1.174-13.146-12.066-1.193-5.07-0.778-11.961-0.771-12.072 0.029-0.447-0.054-5.186-0.681-7.358-2.921-10.141-18.188-15.871-36.045-12.331-3.322 0.658-6.707 1.383-9.986 2.229 0.362 3.394 0.476 9.926-3.161 14.244-3.077 3.656-9.528 4.764-10.254 4.879-0.113 0.016-0.226 0.025-0.337 0.025-1.037 0-1.95-0.755-2.117-1.811-0.186-1.17 0.614-2.271 1.784-2.454 1.539-0.249 5.903-1.341 7.642-3.406 2.163-2.569 2.434-6.594 2.297-9.446-0.092-1.936-0.047-16.29-0.047-16.29l-8.137 6.194c-1.875-0.712-3.939-1.112-6.114-1.112-2.109 0-4.118 0.373-5.947 1.046l-7.168-6.016v11.439c-1.411 2.03-2.238 4.402-2.238 6.952 0 5.992 4.494 11.062 10.695 12.788-0.211 2.04 0.017 4.297 0.793 6.817 1.057 3.43 3.927 6.252 7.952 8.349v15.042c0 2.928 2.374 5.302 5.303 5.302 2.927 0 5.302-2.374 5.302-5.302v-11.63c5.116 0.897 10.841 1.051 16.618 0.36l-8.898 7.167c-2.28 1.838-2.64 5.175-0.803 7.456 1.048 1.299 2.583 1.976 4.132 1.976 1.167 0 2.343-0.384 3.323-1.173l15.905-12.812c0.08-0.063 0.138-0.138 0.212-0.207v8.78c0 2.929 2.375 5.302 5.301 5.302 2.928 0 5.303-2.373 5.303-5.302V322.9c4.018 14.116 16.391 18.641 22.565 19.025 0.116 0.008 0.229 0.012 0.344 0.012 2.811 0 5.155-2.177 5.361-5.021C-246.146 333.958-248.382 331.379-251.339 331.136z" fill="#f9e17e" data-fill-palette-color="accent"></path></g></svg></g></svg></g></svg></g><defs></defs></svg><rect width="395.52" height="97.73620646030696" fill="none" stroke="none" visibility="hidden"></rect></g></svg></g></svg>